<svg width="22" height="24" viewBox="0 0 22 24" fill="none" xmlns="http://www.w3.org/2000/svg">
<path d="M20.0909 2.81812H1.90909C1.40701 2.81812 1 3.22513 1 3.72721V21.909C1 22.4111 1.40701 22.8181 1.90909 22.8181H20.0909C20.593 22.8181 21 22.4111 21 21.909V3.72721C21 3.22513 20.593 2.81812 20.0909 2.81812Z" stroke="#BEBEBE" stroke-width="1.6" stroke-linecap="round" stroke-linejoin="round"/>
<path d="M16.4531 1V4.63636" stroke="#BEBEBE" stroke-width="1.6" stroke-linecap="round" stroke-linejoin="round"/>
<path d="M5.54688 1V4.63636" stroke="#BEBEBE" stroke-width="1.6" stroke-linecap="round" stroke-linejoin="round"/>
<path d="M1 8.27271H21" stroke="#BEBEBE" stroke-width="1.6" stroke-linecap="round" stroke-linejoin="round"/>
<path d="M6.45312 12.8183L8.27131 11.9092V19.1819" stroke="#BEBEBE" stroke-width="1.6" stroke-linecap="round" stroke-linejoin="round"/>
<path d="M12.1533 12.8181C12.2777 12.6039 12.4446 12.4174 12.6437 12.27C12.8428 12.1226 13.0699 12.0174 13.3111 11.961C13.5523 11.9045 13.8024 11.8979 14.0463 11.9416C14.2901 11.9853 14.5224 12.0783 14.729 12.215C14.9356 12.3517 15.112 12.5292 15.2476 12.7366C15.3831 12.9439 15.4748 13.1768 15.5171 13.4209C15.5594 13.6649 15.5513 13.9151 15.4935 14.1559C15.4356 14.3968 15.3291 14.6233 15.1806 14.8215L11.9102 19.1818H15.5465" stroke="#BEBEBE" stroke-width="1.6" stroke-linecap="round" stroke-linejoin="round"/>
</svg>
